# Blender v2.61 (sub 0) OBJ File: 'displayCase.blend'
# www.blender.org
g Lid_Extras
v 12.000000 6.000000 3.000000
v 12.000000 6.000000 13.000000
v 3.999999 6.000000 13.000000
v 4.000000 6.000000 3.000000
v 12.000000 5.000000 3.000000
v 12.000000 5.000000 13.000000
v 4.000000 5.000000 13.000000
v 4.000000 5.000000 3.000000
v 2.000000 3.000000 7.000000
v 2.000000 3.000000 9.000000
v 1.000000 3.000000 9.000000
v 1.000000 3.000000 7.000000
v 2.000000 5.000000 7.000000
v 1.999999 5.000000 9.000000
v 1.000000 5.000000 9.000000
v 1.000000 5.000000 7.000000
vt 0.000000 1.000000
vt 0.000000 0.843750
vt 0.125000 0.843750
vt 0.125000 1.000000
vt 0.203125 1.000000
vt 0.171875 1.000000
vt 0.171875 0.984375
vt 0.203125 0.984375
vt 0.140625 1.000000
vt 0.140625 0.984375
vt 0.203125 0.953125
vt 0.171875 0.953125
vt 0.187500 0.953125
vt 0.187500 0.984375
vt 0.140625 0.953125
vt 0.125000 0.984375
vt 0.125000 0.953125
vn -0.000000 1.000000 0.000000
vn 0.000000 -1.000000 0.000000
vn 1.000000 0.000000 0.000000
vn -0.000000 0.000000 1.000000
vn -1.000000 -0.000000 -0.000000
vn 0.000000 0.000000 -1.000000
s off
f 2/1/1 1/2/1 4/3/1 3/4/1
f 6/1/2 7/4/2 8/3/2 5/2/2
f 11/5/2 12/6/2 9/7/2 10/8/2
f 13/9/1 16/10/1 15/7/1 14/6/1
f 9/11/3 13/8/3 14/7/3 10/12/3
f 10/13/4 14/14/4 15/7/4 11/12/4
f 11/12/5 15/7/5 16/10/5 12/15/5
f 12/15/6 16/10/6 13/16/6 9/17/6
g Liner
v 12.000000 1.000000 3.000000
v 11.999999 1.000000 13.000000
v 4.000000 1.000000 13.000000
v 4.000000 1.000000 3.000000
v 4.000000 3.000000 2.000000
v 4.000000 3.000000 14.000000
v 3.000000 3.000000 14.000000
v 3.000000 3.000000 2.000000
v 4.000000 3.000000 13.000000
v 12.000000 3.000000 13.000002
v 12.000000 1.000000 13.000000
v 4.000000 1.000000 12.999998
v 4.000000 1.000000 2.999999
v 12.000000 1.000000 3.000000
v 12.000000 3.000000 3.000002
v 4.000000 3.000000 3.000000
v 11.999999 3.000000 3.000000
v 11.999999 3.000000 13.000000
v 12.000001 1.000000 13.000000
v 12.000001 1.000000 3.000000
v 4.000001 1.000000 3.000000
v 4.000001 1.000000 13.000000
v 4.000000 3.000000 13.000000
v 4.000000 3.000000 3.000000
v 12.000000 3.000000 2.000000
v 12.000000 3.000000 14.000000
v 13.000000 3.000000 14.000000
v 13.000000 3.000000 2.000000
v 12.000000 3.000000 13.000000
v 12.000000 3.000000 14.000000
v 4.000000 3.000000 14.000000
v 4.000000 3.000000 13.000000
v 4.000000 3.000000 2.000000
v 4.000000 3.000000 3.000000
v 12.000000 3.000000 3.000000
v 12.000000 3.000000 2.000000
vt 0.250000 0.187500
vt 0.750000 0.187500
vt 0.750000 0.812500
vt 0.250000 0.812500
vt 0.875000 0.125000
vt 0.937500 0.125000
vt 0.937500 0.875000
vt 0.875000 0.875000
vt 0.750000 0.937500
vt 0.250000 0.937500
vt 0.250000 0.062500
vt 0.750000 0.062500
vt 0.125000 0.812500
vt 0.125000 0.187500
vt 0.875000 0.187500
vt 0.875000 0.812500
vt 0.062500 0.125000
vt 0.125000 0.125000
vt 0.125000 0.875000
vt 0.062500 0.875000
vt 0.750000 1.000000
vt 0.250000 1.000000
vt 0.250000 0.000000
vt 0.750000 0.000000
vn 0.000000 0.000001 -1.000000
vn -0.000000 -0.000001 1.000000
vn -1.000000 -0.000001 -0.000000
vn 1.000000 0.000001 0.000000
s off
f 17/18/1 20/19/1 19/20/1 18/21/1
f 21/22/1 24/23/1 23/24/1 22/25/1
f 27/21/7 28/20/7 25/26/7 26/27/7
f 30/18/8 31/28/8 32/29/8 29/19/8
f 35/21/9 34/30/9 33/31/9 36/18/9
f 38/20/10 37/19/10 40/32/10 39/33/10
f 44/34/1 41/35/1 42/36/1 43/37/1
f 45/27/1 48/26/1 47/38/1 46/39/1
f 52/40/1 49/41/1 50/29/1 51/28/1
g Lid_Frame
v 14.000000 4.000000 15.000001
v 2.000000 4.000000 15.000000
v 14.000000 6.000000 15.000001
v 2.000000 6.000000 15.000000
v 2.000001 6.000000 1.000000
v 14.000001 6.000000 1.000001
v 2.000000 4.000000 1.000000
v 14.000001 4.000000 1.000001
v 2.000000 4.000000 15.000000
v 2.000000 4.000000 1.000000
v 2.000000 6.000000 15.000000
v 2.000000 6.000000 1.000000
v 14.000000 6.000000 1.000000
v 14.000000 6.000000 15.000000
v 14.000000 4.000000 1.000000
v 14.000000 4.000000 15.000000
v 12.000000 6.000000 1.000000
v 11.999999 6.000000 15.000001
v 14.000000 6.000000 15.000000
v 14.000000 6.000000 1.000000
v 2.000000 6.000000 1.000000
v 2.000000 6.000000 15.000000
v 3.999999 6.000000 15.000001
v 4.000000 6.000000 1.000000
v 4.000001 6.000000 3.000000
v 12.000002 6.000000 3.000002
v 12.000001 6.000000 1.000001
v 4.000001 6.000000 1.000000
v 4.000000 6.000000 15.000000
v 12.000000 6.000000 15.000001
v 12.000001 6.000000 13.000002
v 4.000000 6.000000 13.000000
v 4.000000 5.000000 3.000000
v 4.000000 5.000000 13.000000
v 3.000000 5.000000 13.000000
v 3.000000 5.000000 3.000000
v 4.000000 6.000000 3.000000
v 3.999999 6.000000 13.000000
v 11.999999 6.000000 13.000000
v 12.000000 6.000000 3.000000
v 13.000000 5.000000 3.000000
v 13.000000 5.000000 13.000000
v 12.000000 5.000000 13.000000
v 12.000000 5.000000 3.000000
v 12.000000 5.000000 3.000000
v 4.000000 5.000000 3.000000
v 11.999999 6.000000 3.000000
v 4.000000 6.000000 3.000000
v 3.000000 5.000000 2.000000
v 3.000000 5.000000 3.000000
v 13.000000 5.000000 3.000000
v 13.000000 5.000000 2.000000
v 13.000000 5.000000 13.000000
v 13.000000 5.000000 14.000000
v 3.000000 5.000000 14.000000
v 3.000000 5.000000 13.000000
v 4.000000 6.000000 13.000000
v 11.999999 6.000000 13.000000
v 4.000000 5.000000 13.000000
v 12.000000 5.000000 13.000000
v 13.000000 4.000000 1.000000
v 13.000000 4.000000 15.000000
v 14.000000 4.000000 15.000000
v 14.000000 4.000000 1.000000
v 2.000000 4.000000 1.000000
v 2.000000 4.000000 15.000000
v 3.000000 4.000000 15.000000
v 3.000000 4.000000 1.000000
v 3.000001 4.000000 2.000000
v 13.000001 4.000000 2.000001
v 13.000001 4.000000 1.000001
v 3.000000 4.000000 1.000000
v 3.000000 4.000000 15.000000
v 13.000000 4.000000 15.000001
v 13.000000 4.000000 14.000001
v 3.000000 4.000000 14.000000
v 3.000000 4.000000 14.000000
v 13.000000 4.000000 14.000001
v 3.000000 5.000000 14.000000
v 13.000001 5.000000 14.000002
v 3.000000 4.000000 2.000000
v 3.000000 4.000000 14.000000
v 3.000000 5.000000 2.000000
v 2.999999 5.000000 14.000001
v 12.999999 5.000000 14.000001
v 13.000000 5.000000 2.000000
v 13.000000 4.000000 14.000000
v 13.000000 4.000000 2.000000
v 13.000002 5.000000 2.000002
v 3.000001 5.000000 2.000000
v 13.000001 4.000000 2.000001
v 3.000001 4.000000 2.000000
vt 0.421875 0.656250
vt 0.421875 0.625000
vt 0.609375 0.625000
vt 0.609375 0.656250
vt 0.421875 0.375000
vt 0.609375 0.375000
vt 0.609375 0.406250
vt 0.421875 0.406250
vt 0.640625 0.625000
vt 0.640625 0.406250
vt 0.390625 0.625000
vt 0.390625 0.406250
vt 0.453125 0.406250
vt 0.453125 0.625000
vt 0.578125 0.406250
vt 0.578125 0.625000
vt 0.578125 0.437500
vt 0.453125 0.437500
vt 0.578125 0.593750
vt 0.453125 0.593750
vt 0.687500 0.593750
vt 0.687500 0.437500
vt 0.671875 0.437500
vt 0.671875 0.593750
vt 0.562500 0.437500
vt 0.562500 0.593750
vt 0.468750 0.437500
vt 0.468750 0.593750
vt 0.343750 0.593750
vt 0.359375 0.593750
vt 0.359375 0.437500
vt 0.343750 0.437500
vt 0.453125 0.328125
vt 0.453125 0.312500
vt 0.578125 0.312500
vt 0.578125 0.328125
vt 0.593750 0.328125
vt 0.593750 0.343750
vt 0.437500 0.343750
vt 0.437500 0.328125
vt 0.593750 0.687500
vt 0.593750 0.703125
vt 0.437500 0.703125
vt 0.437500 0.687500
vt 0.453125 0.703125
vt 0.578125 0.703125
vt 0.578125 0.718750
vt 0.453125 0.718750
vt 0.375000 0.406250
vt 0.375000 0.625000
vt 0.656250 0.625000
vt 0.656250 0.406250
vt 0.593750 0.359375
vt 0.593750 0.375000
vt 0.437500 0.375000
vt 0.437500 0.359375
vt 0.593750 0.671875
vt 0.437500 0.671875
vt 0.437500 0.656250
vt 0.593750 0.656250
vt 0.671875 0.421875
vt 0.656250 0.421875
vt 0.656250 0.609375
vt 0.671875 0.609375
vt 0.359375 0.421875
vt 0.359375 0.609375
vt 0.375000 0.609375
vt 0.375000 0.421875
s off
f 53/42/4 55/43/4 56/44/4 54/45/4
f 60/46/6 59/47/6 57/48/6 58/49/6
f 61/50/5 63/44/5 64/48/5 62/51/5
f 68/52/3 67/53/3 65/49/3 66/43/3
f 69/54/1 70/55/1 71/43/1 72/49/1
f 76/56/1 73/48/1 74/44/1 75/57/1
f 77/58/1 78/59/1 79/54/1 80/56/1
f 84/60/1 81/57/1 82/55/1 83/61/1
f 87/62/2 88/63/2 85/64/2 86/65/2
f 85/66/3 89/58/3 90/60/3 86/67/3
f 96/68/5 95/69/5 91/61/5 92/59/5
f 94/70/2 95/71/2 96/72/2 93/73/2
f 97/74/4 99/75/4 100/76/4 98/77/4
f 102/78/2 101/79/2 104/80/2 103/81/2
f 107/82/2 108/83/2 105/84/2 106/85/2
f 112/86/6 111/87/6 109/88/6 110/89/6
f 113/53/2 116/90/2 115/91/2 114/52/2
f 120/51/2 119/50/2 118/92/2 117/93/2
f 121/94/2 124/95/2 123/96/2 122/97/2
f 128/98/2 127/99/2 126/100/2 125/101/2
f 129/85/6 131/99/6 132/98/6 130/82/6
f 133/102/3 135/103/3 136/104/3 134/105/3
f 140/106/5 139/107/5 137/108/5 138/109/5
f 144/94/4 143/97/4 141/80/4 142/79/4
g Base
v 3.000000 4.000000 1.000000
v 3.000000 4.000000 15.000000
v 2.000000 4.000000 15.000000
v 2.000000 4.000000 1.000000
v 14.000000 0.000000 1.000000
v 14.000000 0.000000 15.000000
v 2.000000 0.000000 15.000000
v 2.000000 0.000000 1.000000
v 1.999999 4.000000 1.000000
v 1.999999 4.000000 15.000000
v 2.000001 -0.000000 15.000000
v 2.000001 0.000000 1.000000
v 14.000001 0.000000 1.000000
v 14.000001 -0.000000 15.000000
v 13.999999 4.000000 15.000000
v 13.999999 4.000000 1.000000
v 2.000000 4.000000 1.000000
v 14.000000 4.000000 1.000002
v 14.000000 -0.000000 1.000000
v 2.000000 0.000000 0.999999
v 2.000000 0.000000 14.999998
v 14.000000 -0.000000 15.000000
v 14.000000 4.000000 15.000002
v 2.000000 4.000000 15.000000
v 3.000000 4.000000 14.000000
v 13.000000 4.000000 14.000002
v 13.000000 3.000000 14.000000
v 3.000000 3.000000 13.999998
v 3.000000 3.000000 1.999999
v 13.000000 3.000000 2.000000
v 13.000000 4.000000 2.000002
v 3.000000 4.000000 2.000000
v 12.999999 4.000000 2.000000
v 12.999999 4.000000 14.000000
v 13.000001 3.000000 14.000000
v 13.000001 3.000000 2.000000
v 3.000001 3.000000 2.000000
v 3.000001 3.000000 14.000000
v 3.000000 4.000000 14.000000
v 3.000000 4.000000 2.000000
v 13.000000 4.000000 1.000000
v 13.000000 4.000000 15.000000
v 14.000000 4.000000 15.000000
v 14.000000 4.000000 1.000000
v 13.000000 4.000000 14.000000
v 13.000000 4.000000 15.000000
v 3.000000 4.000000 15.000000
v 3.000000 4.000000 14.000000
v 3.000000 4.000000 1.000000
v 3.000000 4.000000 2.000000
v 13.000000 4.000000 2.000000
v 13.000000 4.000000 1.000000
vt 0.234375 0.406250
vt 0.250000 0.406250
vt 0.250000 0.625000
vt 0.234375 0.625000
vt 0.062500 0.406250
vt 0.062500 0.625000
vt 0.312500 0.625000
vt 0.312500 0.406250
vt 0.000000 0.625000
vt 0.000000 0.406250
vt 0.062500 0.343750
vt 0.250000 0.343750
vt 0.062500 0.687500
vt 0.250000 0.687500
vt 0.078125 0.593750
vt 0.234375 0.593750
vt 0.234375 0.609375
vt 0.078125 0.609375
vt 0.078125 0.437500
vt 0.078125 0.421875
vt 0.234375 0.421875
vt 0.234375 0.437500
vt 0.093750 0.609375
vt 0.093750 0.421875
vt 0.218750 0.609375
vt 0.218750 0.421875
vt 0.078125 0.406250
vt 0.078125 0.625000
vn 0.000000 0.000002 -1.000000
vn -0.000000 -0.000002 1.000000
vn -1.000000 -0.000002 -0.000000
s off
f 145/110/1 148/111/1 147/112/1 146/113/1
f 149/114/2 150/115/2 151/112/2 152/111/2
f 155/116/5 154/112/5 153/111/5 156/117/5
f 158/118/3 157/119/3 160/114/3 159/115/3
f 163/120/6 164/121/6 161/111/6 162/114/6
f 166/122/4 167/115/4 168/112/4 165/123/4
f 171/124/11 172/125/11 169/126/11 170/127/11
f 174/128/12 175/129/12 176/130/12 173/131/12
f 179/132/13 178/127/13 177/129/13 180/133/13
f 182/134/10 181/135/10 184/130/10 183/126/10
f 188/114/1 185/136/1 186/137/1 187/115/1
f 189/127/1 192/126/1 191/113/1 190/137/1
f 196/136/1 193/110/1 194/130/1 195/129/1
