# Blender v2.61 (sub 0) OBJ File: 'safe.blend'
# www.blender.org
g Safe_Shelf
v 15.000002 18.000000 3.000001
v 15.000002 17.000000 3.000000
v 1.000002 17.000000 2.999999
v 1.000002 18.000000 2.999998
v 1.000000 17.000000 14.999998
v 15.000000 17.000000 15.000000
v 15.000000 18.000000 15.000000
v 1.000000 18.000000 14.999998
vt 0.742188 0.906250
vt 0.632812 0.906250
vt 0.632812 0.898438
vt 0.742188 0.898438
vt 0.632812 0.804688
vt 0.742188 0.804688
vt 0.742188 1.000000
vt 0.632812 1.000000
vn 0.000000 0.000000 -1.000000
vn 0.000000 -1.000000 0.000000
vn 0.000000 1.000000 0.000000
s off
f 4/1/1 1/2/1 2/3/1 3/4/1
f 6/5/2 5/6/2 3/4/2 2/3/2
f 1/2/3 4/1/3 8/7/3 7/8/3
g Wheel_Num
v -1.500000 0.606764 -0.440837
v -1.500000 0.231765 -0.713291
v -1.500000 -0.231761 -0.713293
v -1.500000 -0.606762 -0.440840
v -1.500000 -0.750000 -0.000001
v -1.500000 -0.606764 0.440838
v -1.500000 -0.231764 0.713292
v -1.500000 0.231762 0.713293
v -1.500000 0.606762 0.440840
v -1.500000 0.750000 0.000001
v -1.000000 0.606763 -0.440839
v -1.000000 0.231763 -0.713292
v -1.000000 -0.231763 -0.713293
v -1.000000 -0.606763 -0.440839
v -1.000000 -0.750000 -0.000000
v -1.000000 -0.606763 0.440839
v -1.000000 -0.231763 0.713292
v -1.000000 0.231763 0.713292
v -1.000000 0.606763 0.440839
v -1.000000 0.750000 0.000000
vt 0.000000 0.625000
vt 0.125000 0.625000
vt 0.125000 0.750000
vt 0.000000 0.750000
vt 0.125000 0.875000
vt 0.000000 0.875000
vt 0.125000 1.000000
vt 0.000000 1.000000
vt 0.125000 0.375000
vt 0.250000 0.375000
vt 0.250000 0.500000
vt 0.125000 0.500000
vt 0.250000 0.625000
vt 0.250000 0.750000
vt 0.250000 0.875000
vt 0.250000 1.000000
vt 0.000000 0.375000
vt 0.000000 0.500000
vn 0.000000 0.951057 -0.309016
vn -0.000001 0.587787 -0.809016
vn -0.000001 0.000002 -1.000000
vn -0.000001 -0.587784 -0.809018
vn -0.000000 -0.951056 -0.309018
vn 0.000000 -0.951057 0.309016
vn 0.000000 -0.587786 0.809016
vn 0.000001 -0.000001 1.000000
vn 0.000000 0.587785 0.809017
vn 0.000000 0.951056 0.309018
s off
f 19/9/4 9/10/4 18/11/4 28/12/4
f 9/13/5 19/14/5 20/12/5 10/11/5
f 21/14/6 11/13/6 10/15/6 20/16/6
f 22/17/7 12/18/7 11/19/7 21/20/7
f 23/20/8 13/19/8 12/21/8 22/10/8
f 24/10/9 14/21/9 13/22/9 23/11/9
f 25/11/10 15/22/10 14/23/10 24/13/10
f 26/13/11 16/23/11 15/24/11 25/15/11
f 27/25/12 17/17/12 16/20/12 26/26/12
f 28/26/13 18/20/13 17/10/13 27/9/13
g Door_Tall
v 15.000002 0.999998 1.000000
v 1.000002 0.999998 0.999997
v 1.000002 0.999998 1.999997
v 15.000002 0.999998 2.000000
v 15.000002 30.999998 0.999998
v 1.000002 30.999998 0.999995
v 1.000002 30.999998 1.999995
v 15.000002 30.999998 1.999998
vt 0.398438 0.578125
vt 0.398438 0.343750
vt 0.507812 0.343750
vt 0.507812 0.578125
vt 0.632812 0.578125
vt 0.523438 0.578125
vt 0.523438 0.343750
vt 0.632812 0.343750
vt 0.515625 0.578125
vt 0.515625 0.343750
vt 0.390625 0.578125
vt 0.390625 0.343750
vt 0.398438 0.335938
vt 0.507812 0.335938
vt 0.398438 0.585938
vt 0.507812 0.585938
vn -0.000000 0.000000 1.000000
vn -1.000000 0.000000 0.000000
vn 1.000000 0.000000 0.000000
s off
f 33/27/1 29/28/1 30/29/1 34/30/1
f 36/31/14 35/32/14 31/33/14 32/34/14
f 35/35/15 34/30/15 30/29/15 31/36/15
f 29/28/16 33/27/16 36/37/16 32/38/16
f 30/29/2 29/28/2 32/39/2 31/40/2
f 36/27/3 33/41/3 34/42/3 35/30/3
g Safe_Tall
v 0.000003 31.999998 -0.000004
v 16.000002 31.999998 -0.000002
v 0.000003 30.999998 -0.000004
v 16.000002 30.999998 -0.000002
v 15.000003 30.999998 -0.000002
v 16.000002 30.999998 -0.000002
v 15.000003 0.999997 0.000000
v 16.000002 0.999997 0.000000
v 0.000003 30.999998 -0.000004
v 1.000003 30.999998 -0.000004
v 0.000003 0.999997 -0.000002
v 1.000003 0.999997 -0.000002
v 1.000003 0.999997 -0.000002
v 0.000003 -0.000003 -0.000002
v 0.000000 -0.000000 15.999997
v 1.000000 1.000000 14.999998
v 1.000003 30.999998 -0.000004
v 0.000003 31.999998 -0.000004
v 0.000000 32.000000 15.999995
v 1.000000 31.000000 14.999995
v 15.000000 1.000000 15.000000
v 16.000000 -0.000000 16.000000
v 16.000002 -0.000003 0.000000
v 15.000003 0.999997 0.000000
v 15.000000 31.000000 14.999997
v 16.000000 32.000000 15.999997
v 16.000002 31.999998 -0.000002
v 15.000003 30.999998 -0.000002
v 1.000000 31.000000 14.999995
v 15.000000 31.000000 14.999997
v 15.000003 30.999998 -0.000002
v 1.000003 30.999998 -0.000004
v 0.000000 32.000000 15.999995
v 16.000000 32.000000 15.999997
v 16.000002 31.999998 -0.000002
v 0.000003 31.999998 -0.000004
v 0.000000 -0.000000 15.999997
v 16.000000 -0.000000 16.000000
v 15.000000 1.000000 15.000000
v 1.000000 1.000000 14.999998
v 0.000000 32.000000 15.999995
v 16.000000 32.000000 15.999997
v 15.000000 31.000000 14.999997
v 1.000000 31.000000 14.999995
vt 0.500000 1.000000
vt 0.375000 1.000000
vt 0.375000 0.992188
vt 0.500000 0.992188
vt 0.382812 0.992188
vt 0.375000 0.882812
vt 0.382812 0.882812
vt 0.492188 0.992188
vt 0.492188 0.882812
vt 0.500000 0.882812
vt 0.625000 1.000000
vt 0.625000 0.750000
vt 0.500000 0.750000
vt 0.265625 0.578125
vt 0.265625 0.343750
vt 0.382812 0.343750
vt 0.382812 0.578125
vt 0.117188 0.843750
vt 0.007812 0.843750
vt 0.007812 0.726562
vt 0.117188 0.726562
vt 0.250000 1.000000
vt 0.250000 0.875000
vt 0.125000 0.875000
vt 0.125000 1.000000
vt 0.250000 0.578125
vt 0.140625 0.578125
vt 0.140625 0.343750
vt 0.250000 0.343750
s off
f 37/43/1 38/44/1 40/45/1 39/46/1
f 41/47/1 42/45/1 44/48/1 43/49/1
f 46/50/1 48/51/1 47/52/1 45/46/1
f 55/43/15 54/53/15 50/54/15 51/55/15
f 56/56/16 52/57/16 49/58/16 53/59/16
f 63/53/16 62/43/16 58/55/16 59/54/16
f 64/59/15 60/58/15 57/57/15 61/56/15
f 68/60/2 67/61/2 66/62/2 65/63/2
f 72/64/3 69/65/3 70/66/3 71/67/3
f 77/43/14 73/55/14 74/54/14 78/53/14
f 80/68/1 79/69/1 75/70/1 76/71/1
g Safe_Small
v 0.000003 15.999997 -0.000006
v 16.000002 15.999997 -0.000002
v 0.000003 14.999997 -0.000006
v 16.000002 14.999997 -0.000002
v 15.000003 14.999997 -0.000002
v 16.000002 14.999997 -0.000002
v 15.000003 0.999997 0.000000
v 16.000002 0.999997 0.000000
v 0.000003 14.999997 -0.000006
v 1.000003 14.999997 -0.000004
v 0.000003 0.999997 -0.000002
v 1.000003 0.999997 -0.000002
v 1.000003 0.999997 -0.000002
v 0.000003 -0.000003 -0.000002
v 0.000000 -0.000000 15.999997
v 1.000000 1.000000 14.999998
v 1.000003 14.999997 -0.000004
v 0.000003 15.999997 -0.000006
v 0.000000 16.000000 15.999995
v 1.000000 15.000000 14.999995
v 15.000000 1.000000 15.000000
v 16.000000 -0.000000 16.000000
v 16.000002 -0.000003 0.000000
v 15.000003 0.999997 0.000000
v 15.000000 15.000000 14.999997
v 16.000000 16.000000 15.999997
v 16.000002 15.999997 -0.000002
v 15.000003 14.999997 -0.000002
v 1.000000 15.000000 14.999995
v 15.000000 15.000000 14.999997
v 15.000003 14.999997 -0.000002
v 1.000003 14.999997 -0.000004
v 0.000000 16.000000 15.999995
v 16.000000 16.000000 15.999997
v 16.000002 15.999997 -0.000002
v 0.000003 15.999997 -0.000006
v 0.000000 -0.000000 15.999997
v 16.000000 -0.000000 16.000000
v 15.000000 1.000000 15.000000
v 1.000000 1.000000 14.999998
v 0.000000 16.000000 15.999995
v 16.000000 16.000000 15.999997
v 15.000000 15.000000 14.999997
v 1.000000 15.000000 14.999995
vt 0.500000 1.000000
vt 0.375000 1.000000
vt 0.375000 0.992188
vt 0.500000 0.992188
vt 0.382812 0.992188
vt 0.375000 0.882812
vt 0.382812 0.882812
vt 0.492188 0.992188
vt 0.492188 0.882812
vt 0.500000 0.882812
vt 0.000000 1.000000
vt 0.125000 1.000000
vt 0.125000 0.875000
vt 0.000000 0.875000
vt 0.132812 0.710938
vt 0.132812 0.601562
vt 0.250000 0.601562
vt 0.250000 0.710938
vt 0.117188 0.843750
vt 0.007812 0.843750
vt 0.007812 0.726562
vt 0.117188 0.726562
vt 0.250000 1.000000
vt 0.250000 0.875000
vt 0.117188 0.710938
vt 0.007812 0.710938
vt 0.007812 0.601562
vt 0.117188 0.601562
vn 0.000001 -0.000000 -1.000000
s off
f 81/72/1 82/73/1 84/74/1 83/75/1
f 85/76/1 86/74/1 88/77/1 87/78/1
f 90/79/17 92/80/17 91/81/17 89/75/17
f 99/82/15 98/83/15 94/84/15 95/85/15
f 100/86/16 96/87/16 93/88/16 97/89/16
f 107/83/16 106/82/16 102/85/16 103/84/16
f 108/89/15 104/88/15 101/87/15 105/86/15
f 112/90/2 111/91/2 110/92/2 109/93/2
f 116/94/3 113/95/3 114/84/3 115/83/3
f 121/82/14 117/85/14 118/84/14 122/83/14
f 124/96/1 123/97/1 119/98/1 120/99/1
g Wheel_Sides
v -1.500000 0.750000 0.000001
v -1.500000 0.606762 0.440840
v -1.500000 0.231762 0.713293
v -1.500000 -0.231764 0.713292
v -1.500000 -0.606764 0.440838
v -1.500000 -0.750000 -0.000001
v -1.500000 -0.606762 -0.440840
v -1.500000 -0.231761 -0.713293
v -1.500000 0.231765 -0.713291
v -1.500000 0.606764 -0.440837
v -1.500000 0.000000 0.000000
v -1.000000 0.000000 0.000000
v -1.000000 0.606764 -0.440837
v -1.000000 0.231765 -0.713292
v -1.000000 -0.231761 -0.713293
v -1.000000 -0.606762 -0.440840
v -1.000000 -0.750000 -0.000001
v -1.000000 -0.606763 0.440838
v -1.000000 -0.231764 0.713292
v -1.000000 0.231762 0.713293
v -1.000000 0.606762 0.440840
v -1.000000 0.750000 0.000001
vt 0.921875 0.351562
vt 0.804688 0.382812
vt 0.804688 0.195312
vt 0.992188 0.257812
vt 0.992188 0.132812
vt 0.921875 0.039062
vt 0.804688 0.007812
vt 0.687500 0.039062
vt 0.617188 0.132812
vt 0.617188 0.257812
vt 0.687500 0.351562
vt 0.414062 0.195312
vt 0.296875 0.351562
vt 0.414062 0.382812
vt 0.226562 0.257812
vt 0.226562 0.132812
vt 0.296875 0.039062
vt 0.414062 0.007812
vt 0.531250 0.039062
vt 0.601562 0.132812
vt 0.601562 0.257812
vt 0.531250 0.351562
vn -1.000000 -0.000000 0.000001
vn 1.000000 0.000000 -0.000001
s off
f 126/100/18 125/101/18 135/102/18
f 135/102/18 127/103/18 126/100/18
f 135/102/18 128/104/18 127/103/18
f 135/102/18 129/105/18 128/104/18
f 135/102/18 130/106/18 129/105/18
f 135/102/18 131/107/18 130/106/18
f 135/102/18 132/108/18 131/107/18
f 135/102/18 133/109/18 132/108/18
f 135/102/18 134/110/18 133/109/18
f 135/102/18 125/101/18 134/110/18
f 136/111/19 137/112/19 146/113/19
f 136/111/19 138/114/19 137/112/19
f 136/111/19 139/115/19 138/114/19
f 136/111/19 140/116/19 139/115/19
f 136/111/19 141/117/19 140/116/19
f 136/111/19 142/118/19 141/117/19
f 136/111/19 143/119/19 142/118/19
f 136/111/19 144/120/19 143/119/19
f 136/111/19 145/121/19 144/120/19
f 136/111/19 146/113/19 145/121/19
g Safe_Base
v 1.000003 0.999997 -0.000002
v 15.000003 0.999997 0.000000
v 15.000000 1.000000 15.000000
v 1.000000 1.000000 14.999998
v 0.000003 -0.000003 -0.000002
v 16.000002 -0.000003 0.000000
v 16.000000 0.000000 16.000000
v 0.000000 0.000000 15.999997
v 16.000002 -0.000003 0.000000
v 0.000003 -0.000003 -0.000002
v 16.000002 0.999997 0.000000
v 0.000003 0.999997 -0.000002
vt 0.117188 0.468750
vt 0.117188 0.585938
vt 0.007812 0.585938
vt 0.007812 0.468750
vt 0.375000 1.000000
vt 0.250000 1.000000
vt 0.250000 0.875000
vt 0.375000 0.875000
vt 0.500000 0.882812
vt 0.375000 0.882812
vt 0.500000 0.875000
s off
f 147/122/3 150/123/3 149/124/3 148/125/3
f 151/126/2 152/127/2 153/128/2 154/129/2
f 158/130/1 157/131/1 155/129/1 156/132/1
g ComboBack
v -3.249750 -0.750000 -0.000000
v -3.249750 -0.750000 -0.250000
v -0.750000 -0.750000 -0.250000
v -0.750000 -0.750000 0.000001
v -3.249751 0.750000 -0.000001
v -3.249749 0.750000 -0.250001
v -0.750000 0.750000 -0.249999
v -0.750000 0.750000 0.000000
vt 0.937500 0.500000
vt 0.937500 0.562500
vt 0.312500 0.562500
vt 0.312500 0.500000
vt 0.937500 1.000000
vt 0.312500 1.000000
vt 0.312500 0.937500
vt 0.937500 0.937500
vt 1.000000 0.562500
vt 1.000000 0.937500
vt 0.250000 0.937500
vt 0.250000 0.562500
vn -1.000000 0.000000 -0.000003
vn 1.000000 -0.000000 0.000002
s off
f 159/133/2 160/134/2 161/135/2 162/136/2
f 163/137/3 166/138/3 165/139/3 164/140/3
f 159/141/20 163/142/20 164/140/20 160/134/20
f 160/134/1 164/140/1 165/139/1 161/135/1
f 161/135/21 165/139/21 166/143/21 162/144/21
g Door_Small
v 15.000002 0.999998 1.000000
v 1.000002 0.999998 0.999997
v 1.000002 0.999998 1.999997
v 15.000002 0.999998 2.000000
v 15.000002 14.999997 0.999997
v 1.000002 14.999997 0.999995
v 1.000002 14.999998 1.999995
v 15.000002 14.999998 1.999997
vt 0.148438 0.851562
vt 0.148438 0.742188
vt 0.257812 0.742188
vt 0.257812 0.851562
vt 0.382812 0.851562
vt 0.273438 0.851562
vt 0.273438 0.742188
vt 0.382812 0.742188
vt 0.265625 0.851562
vt 0.265625 0.742188
vt 0.140625 0.851562
vt 0.140625 0.742188
vt 0.148438 0.734375
vt 0.257812 0.734375
vt 0.148438 0.859375
vt 0.257812 0.859375
vn 0.000000 1.000000 -0.000001
s off
f 171/145/1 167/146/1 168/147/1 172/148/1
f 174/149/14 173/150/14 169/151/14 170/152/14
f 173/153/15 172/148/15 168/147/15 169/154/15
f 167/146/16 171/145/16 174/155/16 170/156/16
f 168/147/2 167/146/2 170/157/2 169/158/2
f 174/145/22 171/159/22 172/160/22 173/148/22
g Keypad
v 22.066181 9.199997 0.400000
v 23.666180 9.199997 0.400001
v 23.666180 9.799997 0.400000
v 22.066181 9.799997 0.400000
v 22.066181 9.199998 1.400000
v 23.666180 9.199998 1.400001
v 23.666180 9.799998 1.400000
v 22.066181 9.799998 1.400000
v 21.866180 6.999998 0.500001
v 23.866180 6.999998 0.500001
v 23.866180 9.999997 0.500000
v 21.866180 9.999997 0.500000
v 21.866180 6.999998 1.500001
v 23.866180 6.999998 1.500001
v 23.866180 9.999998 1.500000
v 21.866180 9.999998 1.500000
v 22.066181 7.399998 0.400001
v 22.466181 7.399998 0.400001
v 22.466181 7.799998 0.400001
v 22.066181 7.799998 0.400001
v 22.066181 7.399998 1.400001
v 22.466181 7.399998 1.400001
v 22.466181 7.799998 1.400001
v 22.066181 7.799998 1.400001
v 22.666180 7.399998 0.400001
v 23.066181 7.399998 0.400001
v 23.066181 7.799998 0.400001
v 22.666180 7.799998 0.400001
v 22.666180 7.399998 1.400001
v 23.066181 7.399998 1.400001
v 23.066181 7.799998 1.400001
v 22.666180 7.799998 1.400001
v 23.266182 8.599998 0.400001
v 23.666180 8.599998 0.400001
v 23.666180 8.999997 0.400001
v 23.266182 8.999997 0.400001
v 23.266182 8.599998 1.400001
v 23.666180 8.599998 1.400001
v 23.666180 8.999998 1.400001
v 23.266182 8.999998 1.400001
v 22.066181 8.599998 0.400000
v 22.466181 8.599998 0.400000
v 22.466181 8.999997 0.400000
v 22.066181 8.999997 0.400000
v 22.066181 8.599998 1.400000
v 22.466181 8.599998 1.400000
v 22.466181 8.999998 1.400000
v 22.066181 8.999998 1.400000
v 22.066181 7.999998 0.400001
v 22.466181 7.999998 0.400001
v 22.466181 8.399997 0.400001
v 22.066181 8.399997 0.400000
v 22.066181 7.999998 1.400001
v 22.466181 7.999998 1.400001
v 22.466181 8.399998 1.400001
v 22.066181 8.399998 1.400000
v 23.266182 7.999998 0.400001
v 23.666180 7.999998 0.400001
v 23.666180 8.399997 0.400001
v 23.266182 8.399997 0.400001
v 23.266182 7.999998 1.400001
v 23.666180 7.999998 1.400001
v 23.666180 8.399998 1.400001
v 23.266182 8.399998 1.400001
v 22.666180 7.999998 0.400001
v 23.066181 7.999998 0.400001
v 23.066181 8.399997 0.400001
v 22.666180 8.399997 0.400001
v 22.666180 7.999998 1.400001
v 23.066181 7.999998 1.400001
v 23.066181 8.399998 1.400001
v 22.666180 8.399998 1.400001
v 22.666180 8.599998 0.400001
v 23.066181 8.599998 0.400001
v 23.066181 8.999997 0.400000
v 22.666180 8.999997 0.400000
v 22.666180 8.599998 1.400001
v 23.066181 8.599998 1.400001
v 23.066181 8.999998 1.400000
v 22.666180 8.999998 1.400000
v 23.266182 7.399998 0.400001
v 23.666180 7.399998 0.400001
v 23.666180 7.799998 0.400001
v 23.266182 7.799998 0.400001
v 23.266182 7.399998 1.400001
v 23.666180 7.399998 1.400001
v 23.666180 7.799998 1.400001
v 23.266182 7.799998 1.400001
vt 0.404960 0.403971
vt 0.485541 0.403724
vt 0.486200 0.618605
vt 0.405619 0.618852
vt 0.486200 0.753152
vt 0.485788 0.618852
vt 0.405207 0.619099
vt 0.405620 0.753399
vt 0.269836 0.753152
vt 0.189256 0.753399
vt 0.188844 0.619099
vt 0.269425 0.618852
vt 0.675868 0.000000
vt 0.675209 0.214880
vt 0.809509 0.215292
vt 0.810168 0.000412
vt 0.675868 0.403312
vt 0.810168 0.403725
vt 0.809509 0.618604
vt 0.675209 0.618193
vt 0.538437 0.000000
vt 0.539673 0.402901
vt 0.271072 0.403724
vt 0.269836 0.000824
vt 0.673973 0.403312
vt 0.539673 0.402900
vt 0.540909 0.000000
vt 0.675209 0.000412
vt 0.675209 0.403725
vt 0.673973 0.806625
vt 0.539673 0.806213
vt 0.540909 0.403312
vt 0.270660 0.672737
vt 0.269836 0.404136
vt 0.404136 0.403724
vt 0.404960 0.672325
vt 0.000824 0.403724
vt 0.135124 0.404136
vt 0.134300 0.672737
vt 0.000000 0.672325
vt 0.261719 1.027344
vt 0.261719 1.082031
vt 0.210938 1.082031
vt 0.210938 1.027344
vt 0.918844 0.618604
vt 0.918432 0.484304
vt 0.972152 0.484139
vt 0.972564 0.618439
vt 0.837194 0.349757
vt 0.783473 0.349592
vt 0.783886 0.215292
vt 0.837606 0.215456
vt 0.053720 0.807202
vt 0.000000 0.807037
vt 0.000412 0.672737
vt 0.054132 0.672901
vt 0.593393 0.806625
vt 0.593804 0.940925
vt 0.540085 0.941090
vt 0.539673 0.806790
vt 0.140625 1.082031
vt 0.140625 1.027344
vt 0.191406 1.027344
vt 0.191406 1.082031
vt 0.729341 0.752904
vt 0.729753 0.618604
vt 0.783473 0.618769
vt 0.783061 0.753069
vt 0.729341 0.752905
vt 0.675620 0.753070
vt 0.675209 0.618769
vt 0.728929 0.618604
vt 0.054132 0.807366
vt 0.107852 0.807202
vt 0.108264 0.941502
vt 0.054544 0.941666
vt 0.837193 0.753069
vt 0.837605 0.887370
vt 0.783885 0.887534
vt 0.783473 0.753234
vt 0.105469 1.187500
vt 0.105469 1.238281
vt 0.050781 1.238281
vt 0.050781 1.187500
vt 0.810580 0.134466
vt 0.810168 0.000165
vt 0.863888 0.000000
vt 0.864300 0.134300
vt 0.891737 0.752905
vt 0.838017 0.753069
vt 0.837605 0.618769
vt 0.891325 0.618604
vt 0.459339 0.753564
vt 0.513059 0.753399
vt 0.513471 0.887700
vt 0.459751 0.887865
vt 0.891737 0.887369
vt 0.892149 0.753069
vt 0.945868 0.753234
vt 0.945457 0.887534
vt 0.187500 1.187500
vt 0.238281 1.187500
vt 0.238281 1.238281
vt 0.187500 1.238281
vt 0.837606 0.349592
vt 0.838018 0.215292
vt 0.891738 0.215456
vt 0.891326 0.349757
vt 0.410156 1.167969
vt 0.355469 1.167969
vt 0.355469 1.035156
vt 0.410156 1.035156
vt 0.134712 0.807202
vt 0.080992 0.807037
vt 0.081404 0.672737
vt 0.135124 0.672901
vt 0.674797 0.806625
vt 0.675209 0.940925
vt 0.621489 0.941090
vt 0.621077 0.806790
vt 0.199219 1.167969
vt 0.199219 1.113281
vt 0.253906 1.113281
vt 0.253906 1.167969
vt 0.675621 0.349757
vt 0.675209 0.215457
vt 0.728930 0.215292
vt 0.729341 0.349592
vt 0.404960 0.807037
vt 0.351240 0.807202
vt 0.350828 0.672902
vt 0.404548 0.672737
vt 0.783473 0.752904
vt 0.783885 0.618604
vt 0.864300 0.618439
vt 0.864712 0.484139
vt 0.918020 0.618604
vt 0.050781 1.132812
vt 0.105469 1.132812
vt 0.729753 0.349757
vt 0.729341 0.215457
vt 0.783062 0.215292
vt 0.729340 0.887370
vt 0.675621 0.887535
vt 0.675209 0.753235
vt 0.728929 0.753070
vt 0.054688 0.804688
vt 0.109375 0.804688
vt 0.109375 0.941406
vt 0.054688 0.941406
vt 0.918432 0.134301
vt 0.918844 0.000001
vt 0.972563 0.000165
vt 0.972152 0.134466
vt 0.121094 1.125000
vt 0.171875 1.125000
vt 0.171875 1.179688
vt 0.121094 1.179688
vt 0.270248 0.807202
vt 0.269836 0.672902
vt 0.323557 0.672737
vt 0.323969 0.807037
vt 0.459339 0.887699
vt 0.405620 0.887864
vt 0.405207 0.753564
vt 0.458927 0.753399
vt 0.269837 0.807366
vt 0.323557 0.807202
vt 0.323969 0.941502
vt 0.270248 0.941666
vt 0.729341 0.887369
vt 0.729753 0.753069
vt 0.783061 0.887534
vt 0.156250 1.183594
vt 0.156250 1.238281
vt 0.105469 1.183594
vt 0.864712 0.134466
vt 0.864300 0.000165
vt 0.918020 0.000000
vt 0.918432 0.134300
vt 1.000000 0.887369
vt 0.946280 0.887534
vt 0.945868 0.753233
vt 0.999588 0.753069
vt 0.350828 0.807366
vt 0.404548 0.807202
vt 0.404960 0.941502
vt 0.351240 0.941667
vt 0.863888 0.484139
vt 0.864300 0.618440
vt 0.810580 0.618604
vt 0.810168 0.484304
vt 0.109375 1.039062
vt 0.109375 1.093750
vt 0.054688 1.093750
vt 0.054688 1.039062
vt 0.891737 0.618769
vt 0.945457 0.618604
vt 0.945869 0.752904
vt 0.891325 0.887534
vt 0.837605 0.887369
vt 0.891737 0.753234
vt 0.215705 0.753564
vt 0.269424 0.753399
vt 0.269836 0.887700
vt 0.216116 0.887865
vt 0.891738 0.349592
vt 0.892149 0.215292
vt 0.945869 0.215457
vt 0.945458 0.349757
vn 0.000000 -0.000001 -1.000000
vn -0.000000 -1.000000 0.000001
vn 0.000001 -0.000001 -1.000000
vn 0.000000 -0.000002 -1.000000
s off
f 175/161/23 178/162/23 177/163/23 176/164/23
f 175/165/15 179/166/15 182/167/15 178/168/15
f 176/169/16 177/170/16 181/171/16 180/172/16
f 175/173/24 176/174/24 180/175/24 179/176/24
f 178/177/22 182/178/22 181/179/22 177/180/22
f 183/181/1 186/182/1 185/183/1 184/184/1
f 183/185/15 187/186/15 190/187/15 186/188/15
f 184/189/16 185/190/16 189/191/16 188/192/16
f 183/193/2 184/194/2 188/195/2 187/196/2
f 186/197/22 190/198/22 189/199/22 185/200/22
f 191/201/1 194/202/1 193/203/1 192/204/1
f 191/205/15 195/206/15 198/207/15 194/208/15
f 192/209/16 193/210/16 197/211/16 196/212/16
f 191/213/2 192/214/2 196/215/2 195/216/2
f 194/217/3 198/218/3 197/219/3 193/220/3
f 199/221/1 202/222/1 201/223/1 200/224/1
f 199/225/15 203/226/15 206/227/15 202/228/15
f 200/229/16 201/230/16 205/231/16 204/232/16
f 199/233/2 200/234/2 204/235/2 203/236/2
f 202/237/3 206/238/3 205/239/3 201/240/3
f 207/241/1 210/242/1 209/243/1 208/244/1
f 207/245/15 211/246/15 214/247/15 210/248/15
f 208/249/16 209/250/16 213/251/16 212/252/16
f 207/253/24 208/254/24 212/255/24 211/256/24
f 210/257/22 214/258/22 213/259/22 209/260/22
f 215/261/1 218/262/1 217/263/1 216/264/1
f 215/265/15 219/266/15 222/267/15 218/268/15
f 216/269/16 217/270/16 221/271/16 220/272/16
f 215/273/24 216/274/24 220/275/24 219/276/24
f 218/277/22 222/278/22 221/279/22 217/280/22
f 223/281/25 226/282/25 225/283/25 224/284/25
f 223/285/15 227/286/15 230/287/15 226/288/15
f 224/289/16 225/290/16 229/291/16 228/292/16
f 223/237/2 224/293/2 228/294/2 227/251/2
f 226/295/22 230/296/22 229/206/22 225/297/22
f 231/244/1 234/298/1 233/299/1 232/241/1
f 231/300/15 235/301/15 238/302/15 234/210/15
f 232/303/16 233/304/16 237/305/16 236/306/16
f 231/307/2 232/308/2 236/309/2 235/310/2
f 234/311/22 238/312/22 237/313/22 233/314/22
f 239/315/1 242/316/1 241/317/1 240/318/1
f 239/319/15 243/320/15 246/321/15 242/322/15
f 240/323/16 241/324/16 245/325/16 244/326/16
f 239/327/2 240/328/2 244/329/2 243/330/2
f 242/331/22 246/332/22 245/240/22 241/333/22
f 247/334/26 250/335/26 249/242/26 248/336/26
f 247/337/15 251/338/15 254/339/15 250/340/15
f 248/341/16 249/342/16 253/343/16 252/344/16
f 247/345/24 248/346/24 252/347/24 251/348/24
f 250/349/22 254/350/22 253/351/22 249/352/22
f 255/353/1 258/354/1 257/355/1 256/356/1
f 255/258/15 259/357/15 262/358/15 258/359/15
f 256/360/16 257/361/16 261/250/16 260/362/16
f 255/363/2 256/364/2 260/365/2 259/366/2
f 258/367/3 262/368/3 261/369/3 257/370/3
